<?xml version="1.0"?>
<svg width="189.62399" height="425.7899" xmlns="http://www.w3.org/2000/svg">
 <g>
  <title>background</title>
  <rect x="-1" y="-1" width="191.62399" height="427.7899" id="canvas_background" fill="none"/>
 </g>

 <g>
  <title>Layer 1</title>
  <g id="svg_7">
   <path id="svg_1" fill="#ffffff" d="m95.201843,330.958496c-0.070869,0 -0.142601,0 -0.21347,0s-0.143471,0 -0.214333,0c0.070862,0 0.142601,0 0.214333,0c-31.547714,-0.022461 -58.399448,-4.832001 -68.921316,-11.594727l12.894918,20.630463l4.707466,64.242065c0,0 51.394119,36.311401 102.202354,0l3.727509,-64.941284l11.112503,-18.17511c-12.153061,5.824188 -36.987213,9.818695 -65.723434,9.838593c0.070869,0 0.142601,0 0.21347,0z"/>
   <path id="svg_2" fill="#ffffff" d="m164.848083,243.130203c-2.244446,1.695648 -4.437912,3.009308 -6.576065,3.935791c-2.140732,0.928192 -4.431,1.392273 -6.873352,1.392273c-2.290268,0 -4.060226,-0.499512 -5.311676,-1.500305c-1.249695,-0.998199 -1.876266,-2.372375 -1.876266,-4.122467c0,-0.142578 0,-0.274811 0,-0.401001c0,-0.123596 0.015549,-0.277435 0.046661,-0.456329c0.119278,-1.069092 0.588562,-2.303223 1.40181,-3.693787c0.813248,-1.393158 1.79158,-2.83905 2.936707,-4.336792c1.144272,-1.500336 2.365448,-3.01709 3.661819,-4.552002c1.296371,-1.534058 2.493362,-2.987701 3.595276,-4.364456c1.097595,-1.371536 2.010239,-2.629883 2.732742,-3.77417c0.725113,-1.141663 1.087219,-2.069 1.087219,-2.783722c0,-0.427826 -0.1521,-0.766586 -0.451996,-1.018936c-0.30249,-0.247192 -0.800278,-0.374237 -1.492554,-0.374237c-1.205612,0 -2.44928,0.312851 -3.729218,0.936829c-1.281677,0.624008 -2.548676,1.464035 -3.79837,2.517548s-2.470886,2.259155 -3.661819,3.613419c-1.189209,1.357742 -2.305801,2.766479 -3.34465,4.229645c-1.040543,1.464035 -1.987747,2.936722 -2.846817,4.41803s-1.59108,2.846832 -2.193466,4.095688c-0.180634,0.392334 -0.436432,0.948059 -0.76918,1.660187c-0.331863,0.713898 -0.693115,1.518494 -1.083771,2.409546c-0.393234,0.892761 -0.80719,1.813202 -1.243637,2.756073c-0.436462,0.947205 -0.835724,1.839966 -1.196991,2.678284s-0.685333,1.586792 -0.970551,2.24881c-0.288651,0.659424 -0.491745,1.114838 -0.611023,1.365479c-0.152115,0.322357 -0.399277,0.926483 -0.74585,1.819275s-0.74498,1.937622 -1.196976,3.132874s-0.926483,2.453598 -1.424286,3.775925c-0.496063,1.319702 -0.963623,2.569397 -1.40181,3.747375c-0.436447,1.177124 -0.821899,2.213318 -1.151169,3.10611c-0.332733,0.891022 -0.544479,1.498596 -0.634354,1.819244c-0.300766,0.928192 -0.655106,1.801971 -1.061295,2.624725c-0.407074,0.819275 -0.872894,1.542694 -1.400955,2.168365c-0.527191,0.623993 -1.131302,1.12442 -1.809738,1.498627c-0.678421,0.376801 -1.439835,0.562622 -2.281616,0.562622c-1.086349,0 -1.981705,-0.260132 -2.691261,-0.777832c-0.706085,-0.51593 -1.061287,-1.508087 -1.061287,-2.971252c0,-0.713898 0.090736,-1.445892 0.271362,-2.194336c0.180634,-0.750183 0.407928,-1.491699 0.678444,-2.222839c0.27137,-0.73291 0.551384,-1.445892 0.836586,-2.140747c0.286072,-0.696625 0.550522,-1.36557 0.789063,-2.00766c1.629105,-3.569336 3.286743,-7.149063 4.97287,-10.736557c1.687027,-3.586639 3.307495,-7.137817 4.860535,-10.654449c0.324097,-0.73288 0.619659,-1.451935 0.93512,-2.180481c-0.095062,0.092468 -0.187546,0.190125 -0.280014,0.279999c-1.960129,1.893585 -3.909866,3.561554 -5.852692,5.006622c-1.946289,1.445862 -3.875275,2.597015 -5.787003,3.454376c-1.913437,0.854736 -3.775902,1.283417 -5.5839,1.283417c-1.235008,0 -2.266922,-0.196198 -3.094864,-0.588593c-0.829681,-0.392334 -1.492561,-0.928162 -1.990372,-1.604858c-0.497795,-0.679321 -0.853012,-1.481354 -1.063019,-2.409546c-0.070869,-0.318024 -0.114944,-0.649933 -0.160751,-0.979187c-0.529778,0.412262 -1.063026,0.813263 -1.600578,1.192657c-1.867653,1.320557 -3.706764,2.382721 -5.515633,3.185608c-1.807144,0.802002 -3.435379,1.203918 -4.880409,1.203918c-1.448471,0 -2.622986,-0.481384 -3.527855,-1.445923c-0.903137,-0.962769 -1.355141,-2.605682 -1.355141,-4.924469c0,-1.642944 0.241989,-3.553772 0.722511,-5.72998c-0.783875,1.393188 -1.763062,2.802795 -2.936714,4.229645c-1.177101,1.428619 -2.517555,2.731903 -4.023071,3.910706c-1.50811,1.177124 -3.195984,2.132111 -5.063622,2.863281c-1.86937,0.731995 -3.903809,1.097565 -6.102798,1.097565c-0.99501,0 -1.950264,-0.123566 -2.871117,-0.374207c-0.918701,-0.249756 -1.725471,-0.679291 -2.418251,-1.28598c-0.693901,-0.604126 -1.250046,-1.417358 -1.672844,-2.435486s-0.632538,-2.294556 -0.632538,-3.828613c0,-0.0354 0.060234,-0.579895 0.180717,-1.635132c0.119438,-1.052643 0.504547,-2.71199 1.152122,-4.978928c0.648712,-2.265198 1.6502,-5.202789 3.005684,-8.808395c1.357559,-3.606537 3.270226,-7.97789 5.742149,-13.116699c0.632622,-1.357742 1.364639,-2.330017 2.191727,-2.918564c0.828812,-0.589432 1.725037,-0.884109 2.689537,-0.884109c0.422623,0 0.859062,0.063065 1.311066,0.186646c0.453728,0.126175 0.873749,0.320648 1.266983,0.590302c0.390648,0.26619 0.707825,0.606689 0.949806,1.016342c0.240265,0.409653 0.361259,0.881561 0.361259,1.417389c0,0.357773 -0.045799,0.697418 -0.136551,1.017212c-0.151245,0.608414 -0.474472,1.400925 -0.969688,2.382721c-0.498665,0.982651 -1.078583,2.107025 -1.742317,3.374023c-0.661148,1.267822 -1.363785,2.632477 -2.10099,4.097397c-0.739792,1.462311 -1.424278,2.979919 -2.056038,4.551117s-1.176247,3.167465 -1.62825,4.792252c-0.452866,1.623932 -0.708679,3.20462 -0.767448,4.737808c0,0.642975 0.149521,1.231567 0.451141,1.767395c0.300758,0.535828 0.798561,0.802002 1.492554,0.802002c1.95752,0 3.826019,-0.642975 5.605507,-1.926422c1.776894,-1.285126 3.418961,-2.883118 4.927078,-4.792221c1.505516,-1.910004 2.870163,-3.96344 4.090477,-6.15863s2.238403,-4.201981 3.051666,-6.024658c0.57299,-1.212555 1.077705,-2.516708 1.51416,-3.908127c0.43644,-1.393188 0.912643,-2.67659 1.424271,-3.855438s1.098457,-2.159714 1.763069,-2.945343c0.66201,-0.783875 1.492546,-1.177109 2.486435,-1.177109c1.086357,0 1.943695,0.411392 2.577194,1.232422c0.632622,0.821915 0.948074,1.802841 0.948074,2.94278c0,0.64299 -0.202225,1.527969 -0.609291,2.651505s-0.919556,2.41037 -1.538361,3.855408s-1.287735,2.990295 -2.010254,4.631485c-0.723366,1.64296 -1.395752,3.310959 -2.011093,5.006607c-0.619667,1.695633 -1.130432,3.355011 -1.537491,4.979797s-0.609299,3.132019 -0.609299,4.523468c0,1.285156 0.66201,1.928986 1.987762,1.928986c0.935112,0 2.09494,-0.322357 3.481194,-0.964508s2.840782,-1.544403 4.362724,-2.704224c0.380272,-0.290359 0.762268,-0.59288 1.14167,-0.910034c0.425209,-1.752716 0.92215,-3.372299 1.502068,-4.844986c1.054382,-2.786331 2.124313,-5.551041 3.209801,-8.299362c1.084641,-2.749176 2.078529,-5.265854 2.983391,-7.551804l13.696594,-34.536163c0.541885,-1.391449 1.273041,-2.3741 2.190872,-2.945358c0.919556,-0.569534 1.846878,-0.856476 2.781998,-0.856476c0.932541,0 1.783813,0.30336 2.552994,0.910049c0.76918,0.608429 1.152908,1.589355 1.152908,2.946213c0,0.642151 -0.127914,1.320572 -0.383728,2.033585c-0.256668,0.715591 -0.57991,1.481323 -0.973145,2.303223c-0.751892,1.67836 -1.648972,3.730957 -2.68866,6.157761c-1.040573,2.427673 -2.156311,5.068817 -3.34465,7.92514c-1.190933,2.856354 -2.412125,5.827621 -3.661819,8.915573c-1.250565,3.088806 -2.470871,6.095551 -3.661819,9.021011c-1.189194,2.929779 -2.305801,5.703171 -3.344635,8.327026s-1.935043,4.899399 -2.689529,6.826691c-0.331879,0.821045 -0.655098,1.776886 -0.970551,2.864975c-0.317184,1.088959 -0.473618,2.061234 -0.473618,2.918564c0,0.534119 0.08989,0.962799 0.270515,1.283417s0.527191,0.483124 1.040565,0.483124c0.632622,0 1.421677,-0.222137 2.371475,-0.6698c0.949814,-0.445953 1.973083,-1.036224 3.074142,-1.76741s2.24617,-1.569458 3.434525,-2.517517c1.190933,-0.94548 2.374069,-1.926437 3.548599,-2.943634c1.177094,-1.018097 2.298889,-2.036163 3.368835,-3.052536s2.027527,-1.953186 2.871887,-2.811386c0.197906,-0.204834 0.434723,-0.350021 0.694855,-0.459793c0.509048,-1.519348 0.972275,-3.009308 1.382797,-4.464691c0.241989,-0.64299 0.572998,-1.552185 0.995605,-2.731018c0.420898,-1.178848 0.904007,-2.338654 1.445892,-3.481201c0.541885,-1.141663 1.152908,-2.132095 1.82962,-2.971283c0.679291,-0.838318 1.410446,-1.258331 2.193451,-1.258331c1.206482,0 2.081116,0.277405 2.623001,0.828796c0.54187,0.55571 0.813248,1.366364 0.813248,2.438049c0,0.214355 -0.029388,0.553116 -0.090744,1.016357s-0.133957,0.956711 -0.224701,1.472656s-0.18927,1.00946 -0.293854,1.472717c-0.107162,0.464935 -0.203094,0.802872 -0.292969,1.016327c1.113144,-1.214249 2.318771,-2.418167 3.615143,-3.613419s2.63681,-2.277283 4.023071,-3.240067c1.387115,-0.963623 2.80275,-1.747482 4.250366,-2.356796c1.445892,-0.60582 2.892639,-0.90918 4.338516,-0.90918c0.993896,0 1.981735,0.143478 2.960922,0.428665c0.978333,0.285187 1.855545,0.705231 2.622116,1.257462c0.76918,0.554871 1.395767,1.249725 1.876297,2.088043s0.723358,1.811462 0.723358,2.918579c0,1.464005 -0.368164,3.024857 -1.107086,4.685074c-0.738068,1.659363 -1.664551,3.328232 -2.780304,5.003998c-1.114868,1.679199 -2.32135,3.310898 -3.615143,4.900269c-1.296371,1.588501 -2.508911,3.033524 -3.639343,4.335922c-1.130447,1.305023 -2.080246,2.409515 -2.848541,3.319595c-0.767456,0.912628 -1.168472,1.527985 -1.196991,1.849487c0,0.427795 0.136551,0.775238 0.407059,1.044861c0.271378,0.266205 0.723373,0.401031 1.356003,0.401031c0.512497,0 1.266983,-0.286102 2.26088,-0.85733s2.389633,-1.560852 4.181213,-2.971313s4.069748,-3.302292 6.826706,-5.676361c1.89183,-1.626511 4.105164,-3.565018 6.60025,-5.773193l12.757156,-110.70369l-0.086426,0c-12.937775,6.195282 -49.286301,12.739029 -92.108032,12.739029c-42.816208,0 -79.166805,-6.543747 -92.107011,-12.739029l-0.106476,0l9.692537,101.611832c0.514139,-1.750122 1.085407,-3.498474 1.718987,-5.239944c1.29525,-3.569336 2.795841,-7.059158 4.497715,-10.467743c1.702913,-3.4086 3.556379,-6.631378 5.560568,-9.664886c2.002983,-3.033508 4.136204,-5.827621 6.396385,-8.379745c2.261217,-2.552124 4.580511,-4.747314 6.962206,-6.586426c2.380653,-1.837402 4.783867,-3.273773 7.209637,-4.309998c2.426895,-1.03537 4.830109,-1.5522 7.210762,-1.5522c2.742088,0 5.39489,0.749313 7.956177,2.24791c2.561363,1.499466 4.956032,3.928009 7.18821,7.28302c0.512062,0.750153 0.835823,1.508102 0.970284,2.275558c0.136642,0.767441 0.203369,1.490829 0.203369,2.168396c0,1.605774 -0.384079,2.874496 -1.152122,3.801819c-0.768158,0.928207 -1.680374,1.391449 -2.734566,1.391449c-0.964951,0 -1.861084,-0.508179 -2.690506,-1.525406s-1.755547,-2.470871 -2.7808,-4.363571c-0.963799,-1.713806 -2.026657,-2.95314 -3.186302,-3.721451c-1.160774,-0.766602 -2.418343,-1.151184 -3.774857,-1.151184c-2.109547,0 -4.362122,0.874619 -6.75782,2.623856c-2.396729,1.749237 -4.769867,4.061096 -7.119324,6.934723c-2.351532,2.872757 -4.604191,6.156891 -6.75885,9.851563s-4.060999,7.478333 -5.718725,11.351028c-1.657711,3.875259 -2.975517,7.693512 -3.954453,11.45903c-0.979969,3.764679 -1.469479,7.148178 -1.469479,10.146255c0,1.000809 0.067844,2.027527 0.202236,3.077621c0.136639,1.054352 0.39159,2.008484 0.76918,2.865814c0.376553,0.857346 0.888618,1.560837 1.537235,2.113937c0.648705,0.554871 1.469482,0.829712 2.463455,0.829712c1.115566,0 2.38065,-0.375122 3.797413,-1.12442c1.415722,-0.747559 2.88624,-1.731079 4.40732,-2.943604c1.522198,-1.214264 3.051918,-2.58757 4.589153,-4.124191c1.538361,-1.534042 2.969036,-3.086243 4.294361,-4.65831c1.325321,-1.569458 2.501129,-3.077591 3.525265,-4.523453c1.025169,-1.445892 1.793228,-2.704224 2.306412,-3.775879l4.203964,-12.582596c0.512062,-1.355133 1.182289,-2.319626 2.011703,-2.891754c0.8283,-0.570419 1.680267,-0.856476 2.554901,-0.856476c0.420616,0 0.842285,0.072601 1.265076,0.214325c0.422707,0.143463 0.798134,0.365585 1.130608,0.66893c0.33239,0.303345 0.594864,0.696579 0.790611,1.177979c0.195854,0.482239 0.292633,1.044876 0.292633,1.686142c0,1.713776 -0.150635,3.31871 -0.45182,4.819016c-0.300156,1.500351 -0.685265,2.962677 -1.15213,4.391251c-0.467903,1.42601 -0.987488,2.863251 -1.559799,4.309143s-1.1306,2.953995 -1.672821,4.526062c-0.11937,0.178055 -0.337746,0.739777 -0.655113,1.684418c-0.316216,0.948074 -0.699249,2.134689 -1.152122,3.561569c-0.451836,1.428589 -0.942375,3.025711 -1.469482,4.793106s-1.069244,3.569336 -1.626507,5.407623c-0.559425,1.838226 -1.092934,3.641052 -1.604992,5.407562s-0.972538,3.363647 -1.37804,4.792267c-0.407757,1.42688 -0.745502,2.622986 -1.017666,3.586639c-0.271111,0.963623 -0.43679,1.534027 -0.497017,1.714661c-0.151676,0.569534 -0.392628,1.203903 -0.722866,1.899643c-0.332386,0.695709 -0.72398,1.357697 -1.176933,1.981689c-0.451733,0.623993 -0.948772,1.142517 -1.492027,1.552185c-0.542152,0.410492 -1.099411,0.615295 -1.672752,0.615295c-0.963902,0 -1.665325,-0.321472 -2.100994,-0.962708c-0.437824,-0.643005 -0.655098,-1.821014 -0.655098,-3.533936c0,-0.251465 0,-0.502136 0,-0.749268c0,-0.249817 0.015045,-0.518555 0.044086,-0.802902c0.029037,-0.571259 0.256065,-1.642059 0.678864,-3.214142c0.422695,-1.569458 0.926212,-3.344635 1.514595,-5.326355c0.58733,-1.980865 1.220997,-4.033447 1.898663,-6.1586s1.28772,-4.023087 1.830994,-5.702332c-1.598606,1.785538 -3.330547,3.561554 -5.199135,5.328094s-3.783428,3.35498 -5.741207,4.765472c-1.958988,1.410431 -3.932932,2.561615 -5.921999,3.454376c-1.989063,0.891022 -3.902855,1.338715 -5.741283,1.338715c-2.109539,0 -3.925411,-0.464966 -5.447609,-1.393158c-0.275347,-0.168549 -0.533587,-0.357819 -0.791735,-0.544495l6.158625,64.565353l3.584381,5.733429c10.521955,6.76358 37.373606,11.57312 68.920969,11.595612c28.736214,-0.021606 53.571236,-4.014435 65.724281,-9.838623l4.582245,-7.490417l8.843842,-76.742584c-0.73201,0.669785 -1.441559,1.324875 -2.122589,1.959244c-2.534851,2.362854 -4.923615,4.388641 -7.1698,6.083435l0,0l0.000015,0z"/>
   <path id="svg_3" fill="#ffffff" d="m95.811996,97.978905c-50.982906,0 -92.311998,4.790359 -92.311998,10.700508c0,5.906876 41.329092,14.594635 92.311998,14.594635c50.988007,0 92.311996,-8.687759 92.311996,-14.594635c0,-5.910149 -41.32399,-10.700508 -92.311996,-10.700508zm16.463043,16.882805c-5.903671,0 -11.153969,-1.784653 -11.153969,-3.321899c0,-0.589493 0.777817,-1.214523 2.061226,-1.762115c0.712143,-1.31131 4.506187,-2.313919 9.092743,-2.313919c4.514847,0 8.266525,0.971405 9.0625,2.252655c1.411316,0.562622 2.28334,1.212357 2.28334,1.824417c0,1.536209 -5.442154,3.320862 -11.34584,3.320862z"/>
   <path id="svg_4" fill="#ffffff" d="m112.27504,112.981308c5.093018,0 9.223267,-1.23494 9.223267,-2.759308c0,-0.173187 -0.058777,-0.342056 -0.160767,-0.506699c-2.132095,-0.849823 -5.508698,-1.497398 -9.0625,-1.497398c-3.639343,0 -7.025467,0.67878 -9.092743,1.559792c-0.077782,0.145279 -0.130501,0.292648 -0.130501,0.445358c0,1.523315 4.128517,2.758255 9.223244,2.758255z"/>
   <g id="svg_5">
    <polygon id="svg_6" fill="#ffffff" points="179.539 12.5108 167.206 3.24218 117.559 55.4827 103.4 110.152 121.293 110.152 135.14 61.6595"/>
   </g>
  </g>
 </g>
</svg>